<svg width="300" height="126" viewBox="0 0 300 126" fill="none" xmlns="http://www.w3.org/2000/svg">
<g clip-path="url(#clip0_2402_3775)">
<path d="M289.262 0H10.7376C4.80543 0 0 4.80543 0 10.7376V114.557C0 120.489 4.80543 125.294 10.7376 125.294H289.262C295.195 125.294 300 120.489 300 114.557V10.7376C300 4.80543 295.195 0 289.262 0ZM296.416 10.914V114.733C296.416 118.683 293.213 121.887 289.262 121.887H10.7376C6.78733 121.887 3.58371 118.683 3.58371 114.733V10.7376C3.58371 6.78733 6.78733 3.58371 10.7376 3.58371H289.262C293.213 3.58371 296.416 6.78733 296.416 10.7376V10.914Z" fill="#999999"/>
<path d="M289.262 3.58374H10.7376C6.78736 3.58374 3.58374 6.78736 3.58374 10.7376V114.733C3.58374 118.683 6.78736 121.887 10.7376 121.887H289.262C293.213 121.887 296.416 118.683 296.416 114.733V10.7376C296.416 6.78736 293.213 3.58374 289.262 3.58374ZM254.769 11.6878C254.932 11.4163 255.163 11.2263 255.434 11.1177C255.747 10.9819 256.602 10.9276 257.986 10.9276H270.163L284.959 36.6109V48.8688H277.371L258.489 16.3439C258.081 15.638 257.742 15.1494 257.484 14.8643C257.226 14.5928 256.887 14.3892 256.48 14.2534L255.421 13.8598C255.149 13.7647 254.919 13.6018 254.756 13.3575C254.593 13.1132 254.511 12.8417 254.511 12.5566C254.511 12.2444 254.593 11.9457 254.756 11.6878H254.769ZM286.398 53.172V69.0136C286.398 69.9367 286.222 70.6154 285.869 71.0227C285.516 71.4435 284.946 71.6471 284.186 71.6471C283.534 71.6471 283.059 71.5113 282.76 71.2399C282.462 70.9684 282.177 70.4254 281.919 69.5837C280.792 66.1222 279.149 63.4751 276.964 61.6561C274.792 59.8371 271.968 58.7512 268.507 58.3846V53.1448H286.412L286.398 53.172ZM218.634 45.9503C219.394 45.6245 219.95 45.3258 220.303 45.0543C220.656 44.7828 221.009 44.4299 221.335 43.9684C221.851 43.2082 222.272 42.2172 222.597 40.9548L228.828 18.2172L230.24 23.9322L225.353 41.7557C225.204 42.2715 225.136 42.7466 225.136 43.1946C225.136 44.3484 225.679 45.1765 226.765 45.6788L227.729 46.1267C228.339 46.3982 228.638 46.8598 228.638 47.5113C228.638 48.4344 227.973 48.896 226.629 48.896H219.624C218.946 48.896 218.403 48.7602 218.009 48.4616C217.615 48.1765 217.412 47.7828 217.412 47.2942C217.412 46.7647 217.819 46.3168 218.62 45.9638L218.634 45.9503ZM204.054 10.4389C204.95 10.5883 205.683 10.7376 206.24 10.9141C206.796 11.077 207.815 11.4299 209.281 11.9593C210.217 12.2851 210.842 12.4616 211.154 12.4616C211.683 12.4616 212.091 12.2172 212.362 11.7421L212.715 11.077C212.932 10.6426 213.353 10.4118 213.95 10.4118C214.439 10.4118 214.833 10.5611 215.091 10.8462C215.362 11.1448 215.484 11.5656 215.484 12.1358V23.5928C215.484 24.3258 215.321 24.8552 214.982 25.1946C214.656 25.5204 214.276 25.6969 213.855 25.6969C213.434 25.6969 213.068 25.5611 212.796 25.276C212.525 24.991 212.321 24.5294 212.145 23.8914C211.765 22.4389 211.385 21.2987 211.018 20.4706C210.231 18.7331 209.335 17.3077 208.317 16.2353C207.638 15.5023 206.959 14.9322 206.281 14.5385C205.602 14.1448 204.855 13.8869 204.027 13.7783V10.4525L204.054 10.4389ZM141.76 10.9141H142.9C144.977 10.9141 146.756 10.9819 148.208 11.1313C150.38 11.3349 152.321 12.0272 154.032 13.2217C156.489 14.9322 157.71 17.3756 157.71 20.5385C157.71 23.1313 156.882 25.2625 155.24 26.905C154.548 27.6109 153.733 28.181 152.81 28.6154C151.887 29.0634 150.475 29.5521 148.575 30.1086C150.299 30.3665 151.629 30.6516 152.552 30.9638C153.475 31.276 154.317 31.6969 155.063 32.2263C155.851 32.7964 156.462 33.4751 156.882 34.2625C157.303 35.0498 157.52 35.8914 157.52 36.7738V42.4887C157.52 43.0724 157.71 43.3711 158.118 43.3711C158.267 43.3711 158.389 43.3303 158.498 43.2489C158.606 43.1675 158.742 43.0046 158.932 42.7602C159.407 42.1358 159.882 41.8236 160.371 41.8236C160.697 41.8236 161.009 41.9865 161.321 42.3258C161.634 42.6516 161.796 42.991 161.796 43.3168C161.796 43.8869 161.525 44.5792 160.968 45.3937C160.412 46.2082 159.733 46.9412 158.905 47.5928C158.131 48.2037 157.303 48.638 156.407 48.9095C155.511 49.181 154.453 49.3032 153.231 49.3032C150.76 49.3032 148.833 48.6109 147.434 47.2263C146.05 45.8417 145.357 43.9005 145.357 41.4163V36.5837C145.357 35.6335 145.357 35.077 145.33 34.9276C145.249 34.2489 145.005 33.6516 144.611 33.1629C144.122 32.5656 143.403 32.2127 142.493 32.1177V29.3756C143.416 29.2398 144.068 28.9955 144.462 28.6561C144.801 28.3439 145.032 28.0046 145.167 27.6109C145.29 27.2172 145.357 26.6335 145.357 25.8733V18.1358C145.357 18.1358 144.896 16.1132 144.448 15.543C144 14.9729 143.186 14.5249 141.787 14.1855V10.9005L141.76 10.9141ZM127.113 14.5521C127.005 14.3892 126.896 14.2806 126.801 14.2263C126.706 14.1855 126.353 14.0498 125.742 13.8462C125.009 13.6018 124.643 13.0996 124.643 12.3394C124.643 11.8779 124.819 11.5249 125.172 11.267C125.525 11.0227 126.041 10.8869 126.692 10.8869H139.602V43.5475C139.602 44.267 139.738 44.7828 140.009 45.1086C140.158 45.2987 140.294 45.4073 140.416 45.4616C140.538 45.5023 140.959 45.6245 141.679 45.8145C142.561 46.0181 142.995 46.534 142.995 47.3484C142.995 47.8371 142.751 48.2172 142.276 48.5159C141.923 48.7331 141.353 48.8552 140.552 48.8552H126.679C126.027 48.8552 125.511 48.7331 125.158 48.4751C124.805 48.2308 124.629 47.8643 124.629 47.4027C124.629 46.6426 124.996 46.1403 125.729 45.896C126.326 45.6923 126.679 45.5702 126.787 45.5159C126.882 45.4751 126.991 45.3666 127.1 45.1901C127.317 44.8914 127.425 44.4163 127.425 43.7783V15.9774C127.425 15.3258 127.317 14.8507 127.1 14.5656L127.113 14.5521ZM108.828 28.0317C109.887 27.5159 110.661 26.9729 111.177 26.362C111.692 25.7647 112.059 24.9638 112.29 23.9593C112.439 23.267 112.629 22.7919 112.86 22.5204C113.091 22.2625 113.43 22.1267 113.864 22.1267C114.448 22.1267 114.842 22.3575 115.059 22.8055C115.181 23.0362 115.249 23.5792 115.249 24.4208V34.819C115.249 35.6742 115.154 36.2715 114.964 36.5973C114.774 36.9231 114.421 37.086 113.919 37.086C113.498 37.086 113.172 36.9638 112.941 36.7059C112.71 36.448 112.507 36.0272 112.371 35.4163C112.059 34.1675 111.624 33.1901 111.041 32.5249C110.471 31.8462 109.724 31.4118 108.815 31.181V28.0181L108.828 28.0317ZM94.181 14.5521C94.0724 14.3892 93.9638 14.2806 93.8688 14.2263C93.7738 14.1855 93.4209 14.0498 92.81 13.8462C92.077 13.6018 91.7104 13.0996 91.7104 12.3394C91.7104 11.8779 91.8869 11.5249 92.2398 11.267C92.5928 11.0227 93.1086 10.8869 93.7602 10.8869H106.67V48.8281H93.7602C93.1086 48.8281 92.5928 48.7059 92.2398 48.448C91.8869 48.2037 91.7104 47.8371 91.7104 47.3756C91.7104 46.6154 92.077 46.1132 92.81 45.8688C93.4073 45.6652 93.7602 45.543 93.8688 45.4887C93.9638 45.448 94.0724 45.3394 94.181 45.1629C94.3982 44.8643 94.5068 44.3892 94.5068 43.7512V15.9774C94.5068 15.3258 94.3982 14.8507 94.181 14.5656V14.5521ZM71.5249 45.4751C71.6471 45.4344 71.7828 45.3258 71.905 45.1493C72.1765 44.81 72.3122 44.2942 72.3122 43.5611V10.9141H85.2217C86.5928 10.9141 87.2715 11.3892 87.2715 12.3665C87.2715 13.1267 86.905 13.629 86.172 13.8733C85.5747 14.077 85.2218 14.1991 85.1132 14.2534C85.0181 14.2941 84.9095 14.4027 84.8009 14.5792C84.5837 14.8779 84.4751 15.353 84.4751 15.991V43.819C84.4751 44.4706 84.5837 44.9457 84.8009 45.2308C84.9095 45.3937 85.0181 45.5023 85.1132 45.5566C85.2082 45.5973 85.5611 45.7331 86.172 45.9367C86.905 46.181 87.2715 46.6833 87.2715 47.4435C87.2715 48.4073 86.5928 48.8824 85.2217 48.8824H71.3756C70.5747 48.8824 69.9638 48.7602 69.5566 48.5023C69.1494 48.2579 68.9457 47.8779 68.9457 47.3756C68.9457 46.5611 69.3801 46.0453 70.2625 45.8417C70.9819 45.6516 71.3892 45.543 71.5249 45.4887V45.4751ZM23.4163 10.9141H34.4932L42.2172 43.5747C42.3665 44.1448 42.5294 44.6607 42.7195 45.1086C42.8824 45.4616 43.2625 45.7466 43.8326 45.9774C44.3213 46.181 44.6471 46.3846 44.8371 46.5883C45.0272 46.7919 45.1086 47.077 45.1086 47.4299C45.1086 48.3937 44.3892 48.8688 42.9367 48.8688H29.1448C28.5883 48.8688 28.1403 48.7331 27.8145 48.4616C27.4751 48.1901 27.3123 47.8371 27.3123 47.3892C27.3123 47.0227 27.3801 46.7376 27.5294 46.5611C27.6788 46.3711 28.0046 46.1403 28.534 45.8688C28.9005 45.6788 29.1584 45.4751 29.3077 45.2579C29.457 45.0408 29.5249 44.7557 29.5249 44.4299C29.5249 44.1177 29.4978 43.8326 29.4435 43.6018L28.5611 39.5702H20.8236L21.638 35.9865H27.7738L22.7104 13.629L23.4027 10.9276L23.4163 10.9141ZM10.6833 48.4344C10.2896 48.1494 10.086 47.7557 10.086 47.267C10.086 46.7376 10.4932 46.2896 11.2941 45.9367C12.0543 45.6109 12.6109 45.3122 12.9638 45.0408C13.3168 44.7693 13.6697 44.4163 13.9955 43.9548C14.5113 43.1946 14.9322 42.2037 15.2579 40.9412L21.4887 18.2036L22.9005 23.9186L18.0136 41.7421C17.8643 42.2579 17.7964 42.7331 17.7964 43.181C17.7964 44.3349 18.3394 45.1629 19.4254 45.6652L20.3892 46.1132C21 46.3846 21.2987 46.8462 21.2987 47.4978C21.2987 48.4208 20.6335 48.8824 19.2896 48.8824H12.2851C11.6064 48.8824 11.0634 48.7466 10.6697 48.448L10.6833 48.4344ZM40.9412 114.204C40.3711 114.557 39.4208 114.733 38.0905 114.733H15.2444C14.1584 114.733 13.3303 114.529 12.7331 114.136C12.1494 113.729 11.8507 113.158 11.8507 112.425C11.8507 111.204 12.448 110.403 13.6561 110.023C14.6471 109.697 15.2308 109.493 15.3937 109.425C15.5566 109.357 15.7331 109.181 15.9095 108.91C16.276 108.434 16.4525 107.674 16.4525 106.643V62.0091C16.4525 60.9638 16.276 60.2172 15.9095 59.7421C15.7331 59.4706 15.5566 59.3077 15.3937 59.2263C15.2308 59.1584 14.6471 58.9548 13.6561 58.629C12.448 58.2489 11.8507 57.4344 11.8507 56.2263C11.8507 55.4797 12.1494 54.9095 12.7331 54.5023C13.3168 54.0951 14.1584 53.905 15.2444 53.905H36.5159V106.29C36.5159 107.443 36.7466 108.285 37.1946 108.787C37.4389 109.086 37.6561 109.276 37.8733 109.344C38.077 109.412 38.7693 109.602 39.9503 109.9C41.4027 110.226 42.1222 111.041 42.1222 112.357C42.1222 113.131 41.7285 113.756 40.9412 114.231V114.204ZM50.8371 92.0905C50.8371 93.5159 50.6742 94.5068 50.362 95.0498C50.0498 95.5928 49.4661 95.8643 48.6109 95.8643C47.9186 95.8643 47.362 95.6471 46.9684 95.2263C46.5747 94.8055 46.2489 94.086 46.0181 93.0815C45.4751 90.991 44.7285 89.3756 43.7919 88.2625C42.8552 87.1358 41.6199 86.4027 40.0996 86.0362V80.7557C41.8914 79.9005 43.2082 78.991 44.0362 78C44.8643 77.0091 45.4887 75.6788 45.8824 73.9684C46.1267 72.8145 46.4389 72.0136 46.8326 71.5792C47.2263 71.1448 47.7828 70.9141 48.5159 70.9141C49.4932 70.9141 50.1584 71.2942 50.5249 72.0543C50.7421 72.448 50.8371 73.3439 50.8371 74.7421V92.077V92.0905ZM58.7104 68.7828C58.7104 69.8009 58.534 70.534 58.181 70.9819C57.8281 71.4299 57.2444 71.6471 56.4435 71.6471C55.8462 71.6471 55.3846 71.4842 55.0453 71.172C54.7059 70.8598 54.4208 70.3303 54.1765 69.5837C53.7285 68.1177 53.1584 66.7738 52.4389 65.5521C51.7331 64.3303 50.9322 63.2851 50.0362 62.4163C48.8145 61.2218 47.4842 60.3123 46.0453 59.6878C44.5928 59.0634 42.8417 58.629 40.8055 58.3846V53.1448H58.7104V68.7693V68.7828ZM53.7964 42.353C53.8643 42.7195 54 43.1267 54.2172 43.5611C54.5973 44.3756 55.1132 44.9729 55.7783 45.3801L56.7828 46.0453C57.4616 46.4661 57.8145 46.9412 57.8145 47.457C57.8145 48.3937 57.1358 48.8688 55.7919 48.8688H49.0046C47.6607 48.8688 46.9819 48.4073 46.9819 47.4842C46.9819 47.1856 47.0362 46.9684 47.1584 46.8055C47.2806 46.6426 47.5113 46.4661 47.8507 46.2625C49.8462 45.1629 50.8507 43.2489 50.8507 40.5204V23.8779L53.715 32.2127V40.5204C53.715 41.362 53.7421 41.9729 53.81 42.3394L53.7964 42.353ZM50.7693 16.8598C50.4027 15.7874 50.0091 15.0679 49.6018 14.6878C49.3575 14.4435 48.9503 14.267 48.353 14.1584C47.1448 13.9005 46.5475 13.3303 46.5475 12.4344C46.5475 11.9593 46.724 11.5792 47.0634 11.3077C47.4027 11.0362 47.905 10.9005 48.5566 10.9005H61.5611L67.0317 26.4978L69.448 18.0679V27.2987L63.0272 48.8417H61.5475L50.7557 16.8462L50.7693 16.8598ZM88.0724 56.172C86.4978 56.7285 85.3982 57.4751 84.7466 58.4389C84.0951 59.3892 83.7828 60.8009 83.7828 62.6471V103.941C83.7828 106.656 84.1494 108.557 84.896 109.67C85.4797 110.593 86.5385 111.258 88.086 111.652V116.729C81.2444 116.172 75.5294 113.606 70.9005 109.018C64.9005 103.045 61.9005 94.7104 61.9005 84.0272C61.9005 78.6652 62.6878 73.8326 64.276 69.5023C65.8643 65.172 68.2127 61.5068 71.3213 58.4797C73.6969 56.172 76.2489 54.4208 78.991 53.2127C81.7331 52.0181 84.7602 51.3394 88.086 51.1765V56.1584L88.0724 56.172ZM108.692 108.747C104.118 113.321 98.4435 115.86 91.6426 116.376V111.353C92.4299 111.177 93.0543 110.932 93.4887 110.647C93.9367 110.362 94.3304 109.941 94.6969 109.385C95.5249 108.136 95.9322 106.249 95.9322 103.724V62.8779C95.9322 61.2625 95.6607 59.9865 95.1041 59.0362C94.7376 58.3982 94.3032 57.896 93.8009 57.5294C93.2987 57.1629 92.5792 56.81 91.629 56.4842V51.543C94.9141 51.6923 97.9276 52.3711 100.656 53.5521C103.385 54.7466 105.923 56.4706 108.272 58.7647C114.489 64.8326 117.597 73.2489 117.597 84.0408C117.597 94.8326 114.624 102.855 108.692 108.76V108.747ZM120.285 48.8688H108.828V45.896C110.023 45.7059 111.014 45.448 111.787 45.1222C112.575 44.7964 113.348 44.2806 114.136 43.6018C114.923 42.9231 115.561 42.2172 116.023 41.4842C116.484 40.7647 116.932 39.8009 117.353 38.6064C117.557 38.0227 117.76 37.6154 117.991 37.4118C118.208 37.1946 118.52 37.0996 118.9 37.0996C119.416 37.0996 119.769 37.2489 119.973 37.5611C120.176 37.8598 120.272 38.3892 120.272 39.1494V48.8824L120.285 48.8688ZM120.285 20.6878C120.285 21.2579 120.177 21.6788 119.946 21.9231C119.715 22.181 119.362 22.3032 118.86 22.3032C118.439 22.3032 118.14 22.2218 117.95 22.0589C117.76 21.896 117.584 21.5566 117.407 21.0408C116.688 18.9095 115.629 17.2806 114.231 16.1539C112.833 15.0272 111.027 14.362 108.815 14.1448V10.9141H120.272V20.6742L120.285 20.6878ZM151.208 114.204C150.638 114.557 149.688 114.733 148.357 114.733H125.511C124.425 114.733 123.597 114.529 123 114.136C122.416 113.729 122.118 113.158 122.118 112.425C122.118 111.204 122.715 110.403 123.923 110.023C124.914 109.697 125.498 109.493 125.661 109.425C125.824 109.357 126 109.181 126.176 108.91C126.543 108.434 126.719 107.674 126.719 106.643V62.0091C126.719 60.9638 126.543 60.2172 126.176 59.7421C126 59.4706 125.824 59.3077 125.661 59.2263C125.498 59.1584 124.914 58.9548 123.923 58.629C122.715 58.2489 122.118 57.4344 122.118 56.2263C122.118 55.4797 122.416 54.9095 123 54.5023C123.584 54.0951 124.425 53.905 125.511 53.905H146.783V106.29C146.783 107.443 147.014 108.285 147.462 108.787C147.706 109.086 147.923 109.276 148.14 109.344C148.344 109.412 149.036 109.602 150.217 109.9C151.656 110.226 152.389 111.041 152.389 112.357C152.389 113.131 151.996 113.756 151.222 114.231L151.208 114.204ZM180.176 109.14C179.294 110.471 178.208 111.652 176.891 112.697C175.67 113.688 174.353 114.394 172.914 114.828C171.489 115.262 169.805 115.48 167.864 115.48C163.941 115.48 160.873 114.353 158.674 112.1C156.475 109.846 155.376 106.71 155.376 102.679V95.4027C155.376 93.7331 155.362 92.7557 155.335 92.4978C155.186 91.3032 154.765 90.2715 154.086 89.4163C153.217 88.3711 151.982 87.7602 150.367 87.5837V82.7919C151.982 82.5475 153.122 82.1403 153.815 81.543C154.412 81 154.819 80.3892 155.05 79.7104C155.267 79.0181 155.389 78.0136 155.389 76.6697V64.5611C155.389 62.6878 155.023 61.2761 154.303 60.353C153.584 59.4299 152.267 58.6969 150.38 58.1539V53.1856H151.507C154.805 53.1856 157.629 53.3077 159.95 53.5385C163.398 53.8643 166.48 55.0046 169.195 56.9457C173.091 59.715 175.045 63.6788 175.045 68.81C175.045 73.0181 173.729 76.4661 171.122 79.1539C170.023 80.2942 168.733 81.2172 167.267 81.9231C165.787 82.6426 163.548 83.4435 160.548 84.3394C163.29 84.7602 165.394 85.2218 166.86 85.724C168.339 86.2263 169.67 86.9186 170.851 87.7874C172.1 88.7104 173.063 89.8236 173.729 91.0996C174.394 92.3892 174.733 93.7466 174.733 95.172V104.443C174.733 105.394 175.045 105.882 175.67 105.882C175.914 105.882 176.104 105.815 176.267 105.679C176.43 105.543 176.661 105.285 176.959 104.891C177.706 103.873 178.466 103.371 179.24 103.371C179.742 103.371 180.258 103.643 180.76 104.172C181.262 104.715 181.52 105.244 181.52 105.787C181.52 106.71 181.086 107.837 180.204 109.167L180.176 109.14ZM179.335 45.2172C179.443 45.3801 179.552 45.4887 179.647 45.543C179.742 45.5837 180.095 45.7195 180.706 45.9231C181.439 46.1675 181.805 46.6697 181.805 47.4299C181.805 47.8914 181.629 48.2444 181.276 48.5023C180.923 48.7466 180.407 48.8824 179.756 48.8824H166.1C165.448 48.8824 164.932 48.7602 164.579 48.5023C164.226 48.2579 164.05 47.8914 164.05 47.4299C164.05 46.6697 164.416 46.1675 165.149 45.9231C165.747 45.7195 166.1 45.5973 166.208 45.543C166.303 45.5023 166.412 45.3937 166.52 45.2172C166.738 44.9186 166.846 44.4435 166.846 43.8055V15.9774C166.846 15.3258 166.738 14.8507 166.52 14.5656C166.412 14.4027 166.303 14.2941 166.208 14.2398C166.113 14.1991 165.76 14.0634 165.149 13.8598C164.416 13.6154 164.05 13.1132 164.05 12.353C164.05 11.8914 164.226 11.5385 164.579 11.2806C164.932 11.0362 165.448 10.9005 166.1 10.9005H179.756C180.421 10.9005 180.923 11.0227 181.276 11.2806C181.629 11.5249 181.805 11.8914 181.805 12.353C181.805 13.1132 181.439 13.6154 180.706 13.8598C180.109 14.0634 179.756 14.1855 179.647 14.2398C179.552 14.2806 179.443 14.3892 179.335 14.5656C179.118 14.8643 179.009 15.3394 179.009 15.9774V43.8055C179.009 44.457 179.118 44.9322 179.335 45.2172ZM186.679 22.5475C187.439 20.1448 188.552 18.0679 190.005 16.3032C191.471 14.5249 193.235 13.086 195.285 12C197.335 10.9141 199.303 10.3711 201.204 10.3711L201.91 10.3982V13.7376C200.742 13.9005 199.941 14.3756 199.398 15.1765C198.855 15.9774 198.597 17.1041 198.326 18.5702V42.543C198.597 42.9638 198.692 43.4118 198.855 43.8869C199.032 44.362 199.262 44.7557 199.534 45.0815C199.833 45.448 200.145 45.7059 200.471 45.8688C200.796 46.0317 201.258 46.1267 201.896 46.181V49.5475C198.244 49.5475 195.149 48.6245 192.516 46.7647C190.195 45.1222 188.457 42.9231 187.276 40.1539C186.095 37.3846 185.511 34.1132 185.511 30.3122C185.511 27.543 185.891 24.9503 186.652 22.5475H186.679ZM211.222 57.6109C209.539 57.8824 208.276 58.6561 207.448 59.9322C206.62 61.2218 206.213 63.0543 206.213 65.4435V104.348C206.213 105.041 206.348 105.76 206.62 106.52C206.891 107.281 207.244 107.932 207.665 108.462C208.127 109.059 208.602 109.48 209.118 109.738C209.634 109.996 210.326 110.158 211.222 110.253V115.71C205.683 115.71 200.864 114.204 196.778 111.19C193.181 108.529 190.466 104.959 188.634 100.466C186.801 95.9729 185.891 90.6516 185.891 84.5023C185.891 79.9955 186.489 75.8009 187.67 71.905C188.851 68.0091 190.575 64.629 192.828 61.7647C195.109 58.8733 197.851 56.5385 201.027 54.7874C204.217 53.0227 207.272 52.1403 210.217 52.1403L211.208 52.181V57.5973L211.222 57.6109ZM212.118 45.8417C210.91 47.0498 209.661 47.9593 208.385 48.543C207.109 49.1267 205.67 49.4661 204.068 49.534V46.1674C205.507 46.0589 207.014 45.5159 208.588 44.5385C209.742 43.8055 210.733 42.7466 211.534 41.3484C211.887 40.7376 212.145 40.0724 212.348 39.4073C212.525 38.8507 212.742 38.457 212.973 38.2127C213.149 38.0362 213.38 37.9141 213.638 37.8598C214.208 37.7512 214.833 37.9955 215.158 38.4706C215.376 38.7693 215.484 39.1358 215.484 39.5702C215.484 40.3982 215.172 41.4027 214.534 42.5837C213.896 43.7647 213.081 44.8507 212.091 45.8417H212.118ZM231.842 104.43C230.81 106.344 229.493 108.095 227.878 109.71C225.91 111.679 223.887 113.145 221.81 114.095C219.733 115.045 217.398 115.588 214.805 115.71V110.253C217.14 110.077 219.584 109.195 222.149 107.606C223.52 106.738 224.742 105.584 225.815 104.131C226.887 102.679 227.701 101.091 228.231 99.3665C228.529 98.4163 228.882 97.7376 229.29 97.3303C229.656 96.9638 230.131 96.7602 230.701 96.7331C231.434 96.6923 232.181 96.991 232.67 97.534C233.145 98.077 233.389 98.7421 233.389 99.543C233.389 100.887 232.873 102.516 231.842 104.416V104.43ZM233.43 73.629C233.43 74.8236 233.158 75.6923 232.629 76.2218C232.086 76.7647 231.475 77.0227 230.796 77.0227C230.118 77.0227 229.507 76.7919 229.072 76.3303C228.638 75.8688 228.285 75.1086 228.027 74.077C227.403 71.715 226.792 69.8688 226.195 68.5249C224.905 65.6878 223.453 63.3937 221.81 61.629C220.71 60.4344 219.597 59.5249 218.498 58.8733C217.398 58.2353 216.176 57.8281 214.833 57.638V52.2218C216.299 52.4661 217.48 52.7104 218.389 52.9819C219.299 53.2534 220.941 53.8236 223.33 54.6788C224.851 55.2217 225.869 55.4797 226.371 55.4797C227.24 55.4797 227.891 55.0996 228.339 54.3122L228.923 53.2399C229.276 52.5204 229.955 52.1675 230.932 52.1675C231.733 52.1675 232.358 52.4118 232.792 52.8869C233.226 53.362 233.443 54.0679 233.443 54.991V73.6018L233.43 73.629ZM235.167 48.4616C234.828 48.1901 234.665 47.8371 234.665 47.3892C234.665 47.0227 234.733 46.7376 234.882 46.5611C235.032 46.3711 235.358 46.1403 235.887 45.8688C236.253 45.6788 236.511 45.4751 236.661 45.2579C236.81 45.0408 236.878 44.7557 236.878 44.4299C236.878 44.1177 236.851 43.8326 236.796 43.6018L235.9 39.5702H228.163L228.977 35.9865H235.113L230.05 13.629L230.742 10.9276H241.819L249.543 43.5883C249.692 44.1584 249.855 44.6742 250.045 45.1222C250.208 45.4751 250.588 45.7602 251.158 45.991C251.634 46.1946 251.973 46.3982 252.163 46.6018C252.353 46.8055 252.448 47.0905 252.448 47.4435C252.448 48.4073 251.729 48.8824 250.276 48.8824H236.484C235.928 48.8824 235.48 48.7466 235.154 48.4751L235.167 48.4616ZM264.217 114.733H242.946C241.86 114.733 241.032 114.529 240.434 114.136C239.837 113.742 239.552 113.158 239.552 112.425C239.552 111.204 240.149 110.403 241.358 110.023C242.348 109.697 242.932 109.493 243.095 109.425C243.258 109.357 243.434 109.181 243.611 108.91C243.977 108.434 244.154 107.674 244.154 106.643V62.0091C244.154 60.9638 243.977 60.2172 243.611 59.7421C243.434 59.4706 243.258 59.3077 243.095 59.2263C242.932 59.1584 242.348 58.9548 241.358 58.629C240.149 58.2489 239.552 57.4344 239.552 56.2263C239.552 55.4797 239.851 54.9095 240.434 54.5023C241.018 54.0951 241.86 53.905 242.946 53.905H264.217V114.76V114.733ZM265.005 48.5023C264.719 48.7466 264.122 48.8552 263.226 48.8552H256.982C255.339 48.8552 254.525 48.3801 254.525 47.4163C254.525 47.0905 254.606 46.819 254.783 46.629C254.959 46.4389 255.326 46.181 255.91 45.8417C257.634 44.8643 258.502 43.086 258.502 40.5204V20.8779L261.367 25.7376V40.5204C261.367 41.81 261.584 42.8688 262.005 43.6969C262.425 44.5249 263.104 45.2037 264.014 45.7331L264.815 46.1946C265.14 46.3846 265.412 46.6969 265.493 47.077C265.615 47.6742 265.453 48.1358 265.018 48.4887L265.005 48.5023ZM267.801 80.7557C269.566 79.9005 270.869 78.9774 271.71 77.9865C272.566 76.9819 273.177 75.6516 273.584 73.9819C273.828 72.8281 274.14 72.0272 274.534 71.5928C274.928 71.1584 275.484 70.9276 276.217 70.9276C277.195 70.9276 277.86 71.3077 278.213 72.0679C278.43 72.4616 278.525 73.3575 278.525 74.7557V92.0905C278.525 93.5159 278.362 94.5068 278.05 95.0498C277.738 95.5928 277.154 95.8643 276.299 95.8643C275.606 95.8643 275.05 95.6471 274.656 95.2263C274.262 94.8055 273.937 94.086 273.706 93.0815C273.19 90.991 272.457 89.3756 271.493 88.2625C270.543 87.1358 269.308 86.4027 267.787 86.0362V80.7557H267.801ZM287.131 114.733H268.52V109.9C270.462 109.602 272.063 109.181 273.326 108.652C274.588 108.109 275.864 107.294 277.154 106.195C278.43 105.095 279.462 103.955 280.222 102.774C280.982 101.593 281.701 100.032 282.394 98.0905C282.719 97.1403 283.059 96.4887 283.425 96.1494C283.778 95.81 284.281 95.6335 284.905 95.6335C285.733 95.6335 286.317 95.8779 286.656 96.3665C286.982 96.8552 287.145 97.7104 287.145 98.9457V114.747L287.131 114.733ZM288.882 13.276C288.706 13.4661 288.299 13.724 287.647 14.0634C286.697 14.5656 285.977 15.3258 285.489 16.3575C285.149 17.1177 284.973 18.1358 284.973 19.4254V32.0091L282.109 27.0679V19.4254C282.109 17.8779 281.891 16.6969 281.443 15.8824C280.996 15.0679 280.222 14.362 279.109 13.7783C278.729 13.5883 278.471 13.3982 278.321 13.181C278.172 12.9638 278.104 12.6923 278.104 12.3665C278.104 11.8643 278.267 11.5113 278.579 11.2806C278.891 11.0498 279.407 10.9412 280.1 10.9412H286.86C287.783 10.9412 288.38 11.0905 288.665 11.3892C288.977 11.6878 289.127 12.0272 289.127 12.4344C289.127 12.8417 289.045 13.1132 288.869 13.3032L288.882 13.276Z" fill="white"/>
<path d="M40.8054 58.3982C42.8552 58.6426 44.5927 59.0634 46.0452 59.7014C47.4977 60.3258 48.828 61.2354 50.0362 62.4299C50.9185 63.2987 51.7194 64.3439 52.4389 65.5657C53.1448 66.7874 53.7285 68.1313 54.1765 69.5973C54.4072 70.3439 54.7059 70.8734 55.0452 71.1856C55.3846 71.4978 55.8461 71.6607 56.4434 71.6607C57.2443 71.6607 57.8145 71.4435 58.181 70.9955C58.5339 70.5476 58.7104 69.8145 58.7104 68.7964V53.172H40.8054V58.4118V58.3982Z" fill="#213265"/>
<path d="M39.9503 109.873C38.7828 109.575 38.0905 109.385 37.8733 109.317C37.6561 109.249 37.4389 109.059 37.1946 108.76C36.7466 108.258 36.5159 107.416 36.5159 106.262V53.8778H15.2444C14.1584 53.8778 13.3303 54.0814 12.7331 54.4751C12.1494 54.8823 11.8507 55.4525 11.8507 56.1991C11.8507 57.4208 12.448 58.2217 13.6561 58.6018C14.6471 58.9276 15.2308 59.1312 15.3937 59.1991C15.5566 59.267 15.7331 59.4434 15.9095 59.7149C16.276 60.19 16.4525 60.9502 16.4525 61.9819V106.615C16.4525 107.661 16.276 108.407 15.9095 108.882C15.7331 109.154 15.5566 109.317 15.3937 109.398C15.2308 109.466 14.6471 109.67 13.6561 109.995C12.448 110.376 11.8507 111.19 11.8507 112.398C11.8507 113.145 12.1494 113.715 12.7331 114.109C13.3168 114.516 14.1584 114.706 15.2444 114.706H38.0905C39.4208 114.706 40.3575 114.529 40.9412 114.176C41.7285 113.701 42.1222 113.077 42.1222 112.303C42.1222 111 41.4027 110.172 39.9503 109.846V109.873Z" fill="#213265"/>
<path d="M48.5158 70.9276C47.7828 70.9276 47.2262 71.1448 46.8326 71.5928C46.4389 72.0272 46.1267 72.8281 45.8824 73.9819C45.4887 75.6787 44.8778 77.0226 44.0362 78.0136C43.2081 79.0045 41.8914 79.914 40.0995 80.7692V86.0498C41.6199 86.4163 42.8416 87.1629 43.7919 88.276C44.7285 89.4027 45.4751 91.0045 46.0181 93.095C46.2624 94.0996 46.5747 94.8054 46.9683 95.2398C47.362 95.6606 47.905 95.8778 48.6109 95.8778C49.4661 95.8778 50.0498 95.6063 50.362 95.0634C50.6742 94.5204 50.8371 93.5294 50.8371 92.1041V74.7692C50.8371 73.3711 50.7285 72.4751 50.5249 72.0815C50.1584 71.3213 49.4932 70.9412 48.5158 70.9412V70.9276Z" fill="#213265"/>
<path d="M71.3077 58.4797C68.1991 61.4932 65.8507 65.172 64.2625 69.5023C62.6742 73.8326 61.8869 78.6652 61.8869 84.0272C61.8869 94.7104 64.8869 103.045 70.8869 109.018C75.5023 113.606 81.2308 116.172 88.0724 116.729V111.652C86.5385 111.258 85.4661 110.593 84.8824 109.67C84.1493 108.557 83.7693 106.656 83.7693 103.941V62.6471C83.7693 60.8009 84.095 59.4027 84.7331 58.4389C85.3846 57.4887 86.4842 56.7285 88.0589 56.172V51.1901C84.7331 51.3394 81.7059 52.0181 78.9638 53.2263C76.2217 54.4208 73.6697 56.1855 71.2941 58.4932L71.3077 58.4797Z" fill="#213265"/>
<path d="M100.67 53.552C97.9412 52.3574 94.9412 51.6923 91.6425 51.543V56.4841C92.5927 56.8235 93.3122 57.1765 93.8145 57.5294C94.3167 57.8959 94.7511 58.3982 95.1176 59.0362C95.6606 59.9864 95.9457 61.2624 95.9457 62.8778V103.724C95.9457 106.249 95.5384 108.136 94.7104 109.385C94.3439 109.928 93.9366 110.348 93.5022 110.647C93.0678 110.932 92.4434 111.176 91.6561 111.353V116.376C98.4434 115.86 104.131 113.308 108.706 108.747C114.652 102.842 117.611 94.6018 117.611 84.0271C117.611 73.4525 114.502 64.819 108.285 58.7511C105.937 56.4706 103.398 54.733 100.67 53.5384V53.552Z" fill="#213265"/>
<path d="M150.204 109.873C149.023 109.575 148.33 109.385 148.127 109.317C147.91 109.249 147.692 109.059 147.448 108.76C147 108.258 146.769 107.416 146.769 106.262V53.8778H125.498C124.412 53.8778 123.584 54.0814 122.986 54.4751C122.403 54.8823 122.104 55.4525 122.104 56.1991C122.104 57.4208 122.701 58.2217 123.909 58.6018C124.9 58.9276 125.484 59.1312 125.647 59.1991C125.81 59.267 125.986 59.4434 126.163 59.7149C126.529 60.19 126.706 60.9502 126.706 61.9819V106.615C126.706 107.661 126.529 108.407 126.163 108.882C125.986 109.154 125.81 109.317 125.647 109.398C125.484 109.466 124.9 109.67 123.909 109.995C122.701 110.376 122.104 111.19 122.104 112.398C122.104 113.145 122.403 113.715 122.986 114.109C123.57 114.516 124.412 114.706 125.498 114.706H148.344C149.674 114.706 150.611 114.529 151.195 114.176C151.982 113.701 152.362 113.077 152.362 112.303C152.362 111 151.643 110.172 150.19 109.846L150.204 109.873Z" fill="#213265"/>
<path d="M179.213 103.344C178.439 103.344 177.679 103.846 176.932 104.864C176.633 105.258 176.403 105.516 176.24 105.652C176.077 105.787 175.873 105.855 175.643 105.855C175.018 105.855 174.706 105.38 174.706 104.416V95.1447C174.706 93.7058 174.367 92.3484 173.701 91.0723C173.036 89.7828 172.072 88.6832 170.824 87.7601C169.629 86.8914 168.299 86.2126 166.833 85.6968C165.353 85.1945 163.249 84.733 160.52 84.3122C163.52 83.4162 165.76 82.6153 167.24 81.8959C168.719 81.1764 169.995 80.2533 171.095 79.1267C173.715 76.4389 175.018 72.9909 175.018 68.7828C175.018 63.6515 173.063 59.6877 169.167 56.9185C166.452 54.9773 163.385 53.8506 159.923 53.5113C157.602 53.2669 154.792 53.1583 151.48 53.1583H150.353V58.1267C152.24 58.6696 153.557 59.3891 154.276 60.3257C154.995 61.2488 155.362 62.6606 155.362 64.5339V76.6425C155.362 77.9864 155.253 79.0045 155.023 79.6832C154.792 80.3755 154.385 80.9864 153.787 81.5158C153.095 82.1131 151.955 82.5339 150.339 82.7647V87.5565C151.955 87.733 153.19 88.3438 154.059 89.3891C154.751 90.2579 155.158 91.2896 155.308 92.4705C155.335 92.742 155.348 93.7058 155.348 95.3755V102.652C155.348 106.683 156.448 109.819 158.647 112.072C160.846 114.326 163.914 115.452 167.837 115.452C169.765 115.452 171.448 115.235 172.887 114.801C174.312 114.366 175.643 113.661 176.864 112.67C178.167 111.624 179.267 110.443 180.149 109.113C181.032 107.783 181.466 106.656 181.466 105.733C181.466 105.19 181.208 104.661 180.706 104.118C180.204 103.575 179.688 103.317 179.186 103.317L179.213 103.344Z" fill="#213265"/>
<path d="M230.701 96.7466C230.118 96.7737 229.656 96.9774 229.29 97.3439C228.882 97.7511 228.529 98.4298 228.231 99.3801C227.688 101.118 226.887 102.706 225.814 104.145C224.742 105.597 223.52 106.751 222.149 107.62C219.584 109.208 217.14 110.077 214.805 110.267V115.724C217.398 115.602 219.733 115.072 221.81 114.109C223.887 113.158 225.909 111.692 227.878 109.724C229.493 108.109 230.81 106.357 231.842 104.443C232.873 102.529 233.389 100.9 233.389 99.5701C233.389 98.7692 233.145 98.0905 232.67 97.5611C232.181 97.0181 231.448 96.7194 230.701 96.7602V96.7466Z" fill="#213265"/>
<path d="M201.041 54.7873C197.851 56.552 195.122 58.8733 192.842 61.7647C190.588 64.6289 188.864 68.009 187.683 71.9049C186.502 75.8009 185.905 79.9954 185.905 84.5022C185.905 90.6516 186.814 95.9728 188.647 100.466C190.48 104.959 193.195 108.529 196.792 111.19C200.878 114.204 205.683 115.71 211.235 115.71V110.253C210.353 110.158 209.647 109.995 209.131 109.738C208.615 109.48 208.127 109.059 207.679 108.462C207.244 107.919 206.905 107.281 206.633 106.52C206.362 105.76 206.226 105.041 206.226 104.348V65.4434C206.226 63.0543 206.633 61.2217 207.462 59.9321C208.29 58.6561 209.552 57.8687 211.235 57.6108V52.1945L210.244 52.1538C207.299 52.1538 204.244 53.0362 201.054 54.8009L201.041 54.7873Z" fill="#213265"/>
<path d="M230.905 52.1946C229.914 52.1946 229.249 52.5475 228.896 53.267L228.312 54.3394C227.864 55.1131 227.213 55.5068 226.344 55.5068C225.842 55.5068 224.824 55.2353 223.303 54.7059C220.914 53.8371 219.271 53.2806 218.362 53.0091C217.452 52.7376 216.271 52.4932 214.805 52.2489V57.6652C216.149 57.8416 217.371 58.2489 218.471 58.9005C219.57 59.5385 220.683 60.4615 221.783 61.6561C223.425 63.4208 224.891 65.7149 226.167 68.552C226.765 69.8959 227.376 71.7421 228 74.1041C228.271 75.1493 228.624 75.8959 229.045 76.3575C229.48 76.819 230.05 77.0498 230.769 77.0498C231.489 77.0498 232.072 76.7783 232.602 76.2489C233.145 75.7059 233.403 74.8507 233.403 73.6561V55.0453C233.403 54.1222 233.186 53.4163 232.751 52.9412C232.317 52.4661 231.706 52.2217 230.891 52.2217L230.905 52.1946Z" fill="#213265"/>
<path d="M242.932 53.8779C241.846 53.8779 241.018 54.0815 240.421 54.4751C239.837 54.8824 239.538 55.4525 239.538 56.1991C239.538 57.4208 240.136 58.2217 241.344 58.6018C242.335 58.9276 242.919 59.1313 243.081 59.1991C243.244 59.267 243.421 59.4435 243.597 59.715C243.964 60.1901 244.14 60.9503 244.14 61.9819V106.615C244.14 107.661 243.964 108.407 243.597 108.882C243.421 109.154 243.244 109.317 243.081 109.398C242.919 109.466 242.335 109.67 241.344 109.996C240.136 110.376 239.538 111.19 239.538 112.398C239.538 113.145 239.837 113.715 240.421 114.109C241.005 114.502 241.846 114.706 242.932 114.706H264.204V53.8507H242.932V53.8779Z" fill="#213265"/>
<path d="M284.878 95.6199C284.253 95.6199 283.765 95.7964 283.398 96.1357C283.045 96.4751 282.692 97.1267 282.366 98.0769C281.674 100.018 280.955 101.579 280.195 102.76C279.434 103.941 278.416 105.081 277.127 106.181C275.837 107.281 274.575 108.109 273.299 108.638C272.036 109.181 270.421 109.588 268.493 109.887V114.719H287.104V98.9185C287.104 97.6968 286.941 96.8416 286.615 96.3394C286.29 95.8507 285.706 95.6063 284.864 95.6063L284.878 95.6199Z" fill="#213265"/>
<path d="M271.493 88.2624C272.443 89.3891 273.19 90.991 273.706 93.0815C273.95 94.086 274.262 94.7919 274.656 95.2263C275.05 95.6471 275.593 95.8643 276.299 95.8643C277.154 95.8643 277.738 95.5928 278.05 95.0498C278.376 94.5068 278.525 93.5158 278.525 92.0905V74.7557C278.525 73.3575 278.416 72.4615 278.213 72.0679C277.846 71.3077 277.181 70.9276 276.217 70.9276C275.484 70.9276 274.928 71.1448 274.534 71.5928C274.14 72.0272 273.814 72.8281 273.584 73.9819C273.19 75.6516 272.566 76.9819 271.71 77.9864C270.855 78.991 269.552 79.914 267.801 80.7557V86.0362C269.321 86.4027 270.557 87.1493 271.507 88.2624H271.493Z" fill="#213265"/>
<path d="M268.493 58.3982C271.955 58.7512 274.778 59.8507 276.95 61.6697C279.122 63.4887 280.778 66.1358 281.905 69.5973C282.176 70.4389 282.448 70.9819 282.747 71.2534C283.045 71.5249 283.52 71.6607 284.172 71.6607C284.946 71.6607 285.502 71.457 285.855 71.0362C286.208 70.6154 286.385 69.9502 286.385 69.0272V53.1855H268.48V58.4254L268.493 58.3982Z" fill="#213265"/>
<path d="M21.6516 35.9729L20.8371 39.5566H28.5747L29.457 43.5883C29.5113 43.8326 29.5385 44.1041 29.5385 44.4164C29.5385 44.7557 29.4706 45.0272 29.3213 45.2444C29.1719 45.4616 28.914 45.6652 28.5475 45.8553C28.0317 46.1268 27.6923 46.3711 27.543 46.5476C27.3937 46.7376 27.3258 47.0091 27.3258 47.3756C27.3258 47.8236 27.4887 48.1765 27.828 48.448C28.1674 48.7195 28.6018 48.8553 29.1584 48.8553H42.9502C44.4027 48.8553 45.1222 48.3666 45.1222 47.4164C45.1222 47.0634 45.0271 46.7919 44.8507 46.5747C44.6606 46.3711 44.3348 46.1675 43.8461 45.9639C43.276 45.7467 42.8959 45.448 42.733 45.0951C42.543 44.6471 42.3801 44.1449 42.2308 43.5611L34.5068 10.9005H23.4299L22.7375 13.6019L27.8009 35.9593H21.6652L21.6516 35.9729Z" fill="#BE2033"/>
<path d="M19.3032 48.8688C20.6471 48.8688 21.3122 48.4073 21.3122 47.4842C21.3122 46.8462 21.0136 46.3846 20.4027 46.0996L19.4389 45.6516C18.3529 45.1493 17.81 44.3213 17.81 43.1674C17.81 42.7195 17.8778 42.2444 18.0272 41.7285L22.914 23.905L21.5023 18.1901L15.2715 40.9276C14.9457 42.1765 14.5113 43.181 14.0091 43.9412C13.6833 44.4027 13.3303 44.7692 12.9774 45.0272C12.6244 45.2987 12.0679 45.5973 11.3077 45.9231C10.4932 46.276 10.0995 46.7104 10.0995 47.2534C10.0995 47.7557 10.3032 48.1358 10.6968 48.4208C11.0905 48.7059 11.6335 48.8552 12.3122 48.8552H19.3167L19.3032 48.8688Z" fill="#BE2033"/>
<path d="M50.8371 23.905V40.5476C50.8371 43.2761 49.8326 45.1765 47.8371 46.2896C47.4977 46.4933 47.267 46.6697 47.1448 46.8326C47.0226 46.982 46.9683 47.2127 46.9683 47.5114C46.9683 48.4344 47.6471 48.896 48.9909 48.896H55.7783C57.1222 48.896 57.8009 48.4209 57.8009 47.4842C57.8009 46.9684 57.4615 46.5068 56.7692 46.0724L55.7647 45.4073C55.0995 45.0001 54.5701 44.3892 54.2036 43.5883C53.9864 43.1403 53.8507 42.7467 53.7828 42.3801C53.7149 42.0136 53.6878 41.4028 53.6878 40.5611V32.2534L50.8235 23.9186L50.8371 23.905Z" fill="#BE2033"/>
<path d="M69.4479 27.3258V18.095L67.0316 26.5249L61.5611 10.9276H48.5565C47.905 10.9276 47.4163 11.0634 47.0633 11.3349C46.724 11.6063 46.5475 11.9729 46.5475 12.4615C46.5475 13.3575 47.1448 13.9276 48.3529 14.1855C48.9502 14.2941 49.3574 14.4706 49.6018 14.7149C50.009 15.0815 50.4027 15.8145 50.7692 16.8869L61.5611 48.8824H63.0407L69.4615 27.3394L69.4479 27.3258Z" fill="#BE2033"/>
<path d="M68.9457 47.362C68.9457 47.8643 69.1493 48.2308 69.5565 48.4888C69.9638 48.7331 70.5746 48.8688 71.3755 48.8688H85.2217C86.5927 48.8688 87.2715 48.3801 87.2715 47.4299C87.2715 46.6697 86.905 46.1675 86.1719 45.9231C85.5746 45.7195 85.2217 45.5973 85.1131 45.543C85.0181 45.5023 84.9095 45.3937 84.8009 45.2173C84.5837 44.9186 84.4751 44.4435 84.4751 43.8055V15.9774C84.4751 15.3259 84.5837 14.8507 84.8009 14.5657C84.9095 14.4028 85.0181 14.2942 85.1131 14.2399C85.2081 14.1992 85.5611 14.0634 86.1719 13.8598C86.905 13.6154 87.2715 13.1132 87.2715 12.353C87.2715 11.3892 86.5927 10.9005 85.2217 10.9005H72.3122V43.5611C72.3122 44.2806 72.1764 44.81 71.905 45.1494C71.7828 45.3123 71.647 45.4209 71.5249 45.4752C71.4027 45.5159 70.9819 45.6381 70.2624 45.8281C69.3801 46.0317 68.9457 46.5476 68.9457 47.362Z" fill="#BE2033"/>
<path d="M108.828 14.1448C111.041 14.362 112.846 15.0407 114.244 16.1539C115.643 17.2806 116.688 18.9095 117.421 21.0407C117.597 21.5566 117.774 21.8959 117.964 22.0588C118.154 22.2217 118.453 22.3032 118.873 22.3032C119.362 22.3032 119.729 22.181 119.959 21.9231C120.19 21.6652 120.299 21.2579 120.299 20.6878V10.9276H108.842V14.1584L108.828 14.1448Z" fill="#BE2033"/>
<path d="M112.385 35.4434C112.534 36.0407 112.724 36.4751 112.955 36.733C113.186 36.9909 113.525 37.1131 113.932 37.1131C114.448 37.1131 114.787 36.9502 114.977 36.6244C115.167 36.2986 115.262 35.7013 115.262 34.8461V24.4479C115.262 23.6063 115.195 23.0769 115.072 22.8325C114.855 22.371 114.448 22.1538 113.878 22.1538C113.443 22.1538 113.104 22.2896 112.873 22.5475C112.643 22.8054 112.439 23.2941 112.303 23.9864C112.072 24.9909 111.692 25.7918 111.19 26.3891C110.674 26.9864 109.9 27.5429 108.842 28.0588V31.2217C109.751 31.4389 110.498 31.8868 111.068 32.5656C111.638 33.2443 112.086 34.2081 112.398 35.457L112.385 35.4434Z" fill="#BE2033"/>
<path d="M118.914 37.086C118.534 37.086 118.222 37.1946 118.005 37.3982C117.787 37.6154 117.57 38.009 117.366 38.5928C116.946 39.7873 116.498 40.7511 116.036 41.4706C115.575 42.2036 114.937 42.8959 114.149 43.5882C113.362 44.2805 112.575 44.7692 111.801 45.1086C111.027 45.4344 110.036 45.6923 108.842 45.8823V48.8552H120.299V39.1222C120.299 38.362 120.204 37.8326 120 37.5339C119.796 37.2353 119.443 37.0724 118.928 37.0724L118.914 37.086Z" fill="#BE2033"/>
<path d="M94.181 45.2308C94.0724 45.3937 93.9638 45.5023 93.8688 45.5566C93.7737 45.5973 93.4208 45.7331 92.8099 45.9367C92.0769 46.181 91.7104 46.6833 91.7104 47.4435C91.7104 47.905 91.8869 48.258 92.2398 48.5159C92.5927 48.7602 93.1086 48.896 93.7602 48.896H106.67V10.9141H93.7602C93.1086 10.9141 92.5927 11.0362 92.2398 11.2942C91.8869 11.5385 91.7104 11.905 91.7104 12.3666C91.7104 13.1267 92.0769 13.629 92.8099 13.8733C93.4072 14.077 93.7602 14.1991 93.8688 14.2534C93.9638 14.2942 94.0724 14.4028 94.181 14.5792C94.3982 14.8779 94.5068 15.353 94.5068 15.991V43.819C94.5068 44.4706 94.3982 44.9457 94.181 45.2308Z" fill="#BE2033"/>
<path d="M145.344 18.1493V25.8869C145.344 26.6606 145.276 27.2308 145.154 27.6244C145.032 28.0181 144.787 28.3711 144.448 28.6697C144.054 29.0091 143.403 29.2534 142.48 29.3891V32.1312C143.403 32.2398 144.109 32.5792 144.597 33.1765C144.991 33.6652 145.222 34.2625 145.317 34.9412C145.33 35.0905 145.344 35.6471 145.344 36.5973V41.4299C145.344 43.914 146.036 45.8552 147.421 47.2398C148.805 48.6244 150.733 49.3168 153.217 49.3168C154.439 49.3168 155.498 49.181 156.394 48.9231C157.29 48.6516 158.131 48.2172 158.891 47.6063C159.719 46.9683 160.398 46.2353 160.955 45.4072C161.511 44.5928 161.783 43.9005 161.783 43.3303C161.783 43.0045 161.62 42.6652 161.308 42.3394C160.982 42.0136 160.67 41.8371 160.357 41.8371C159.869 41.8371 159.394 42.1493 158.919 42.7738C158.728 43.0181 158.579 43.1674 158.484 43.2625C158.376 43.3439 158.253 43.3846 158.104 43.3846C157.71 43.3846 157.507 43.086 157.507 42.5023V36.7873C157.507 35.905 157.29 35.0634 156.869 34.276C156.448 33.4887 155.837 32.81 155.05 32.2398C154.303 31.7104 153.462 31.2896 152.538 30.9774C151.615 30.6652 150.285 30.3801 148.561 30.1222C150.448 29.5656 151.86 29.0769 152.796 28.629C153.719 28.181 154.534 27.6109 155.226 26.9186C156.882 25.2625 157.697 23.1448 157.697 20.552C157.697 17.3892 156.475 14.9457 154.018 13.2353C152.308 12.0407 150.366 11.3484 148.195 11.1448C146.728 10.9955 144.964 10.9276 142.887 10.9276H141.747V14.2127C143.145 14.5385 143.959 15 144.407 15.5701C144.855 16.1403 145.317 18.1629 145.317 18.1629L145.344 18.1493Z" fill="#BE2033"/>
<path d="M127.113 45.2308C127.005 45.3937 126.896 45.5023 126.801 45.5566C126.706 45.5973 126.353 45.7331 125.742 45.9367C125.009 46.181 124.643 46.6833 124.643 47.4435C124.643 47.905 124.819 48.258 125.172 48.5159C125.525 48.7602 126.041 48.896 126.692 48.896H140.566C141.367 48.896 141.95 48.7874 142.29 48.5566C142.765 48.258 143.009 47.8643 143.009 47.3892C143.009 46.5747 142.575 46.0589 141.692 45.8552C140.973 45.6652 140.566 45.5566 140.43 45.5023C140.308 45.4616 140.158 45.3394 140.023 45.1494C139.751 44.8371 139.615 44.3213 139.615 43.5883V10.9141H126.706C126.054 10.9141 125.538 11.0362 125.186 11.2942C124.833 11.5385 124.656 11.905 124.656 12.3666C124.656 13.1267 125.023 13.629 125.756 13.8733C126.353 14.077 126.706 14.1991 126.814 14.2534C126.909 14.2942 127.018 14.4028 127.127 14.5792C127.344 14.8779 127.452 15.353 127.452 15.991V43.819C127.452 44.4706 127.344 44.9457 127.127 45.2308H127.113Z" fill="#BE2033"/>
<path d="M179.321 14.5657C179.43 14.4028 179.538 14.2942 179.633 14.2399C179.729 14.1992 180.081 14.0634 180.692 13.8598C181.425 13.6154 181.792 13.1132 181.792 12.353C181.792 11.8915 181.615 11.5385 181.262 11.2806C180.91 11.0363 180.394 10.9005 179.742 10.9005H166.086C165.434 10.9005 164.919 11.0227 164.566 11.2806C164.213 11.5249 164.036 11.8915 164.036 12.353C164.036 13.1132 164.403 13.6154 165.136 13.8598C165.733 14.0634 166.086 14.1856 166.195 14.2399C166.29 14.2806 166.398 14.3892 166.507 14.5657C166.724 14.8643 166.833 15.3394 166.833 15.9774V43.8055C166.833 44.4571 166.724 44.9322 166.507 45.2173C166.398 45.3802 166.29 45.4888 166.195 45.543C166.1 45.5838 165.747 45.7195 165.136 45.9231C164.403 46.1675 164.036 46.6697 164.036 47.4299C164.036 47.8915 164.213 48.2444 164.566 48.5023C164.919 48.7467 165.434 48.8824 166.086 48.8824H179.742C180.407 48.8824 180.91 48.7602 181.262 48.5023C181.615 48.258 181.792 47.8915 181.792 47.4299C181.792 46.6697 181.425 46.1675 180.692 45.9231C180.095 45.7195 179.742 45.5973 179.633 45.543C179.538 45.5023 179.43 45.3937 179.321 45.2173C179.104 44.9186 178.995 44.4435 178.995 43.8055V15.9774C178.995 15.3259 179.104 14.8507 179.321 14.5657Z" fill="#BE2033"/>
<path d="M208.357 16.2217C209.362 17.3077 210.271 18.7195 211.059 20.457C211.425 21.2851 211.805 22.4253 212.186 23.8778C212.348 24.5158 212.566 24.9774 212.837 25.2624C213.109 25.5475 213.462 25.6833 213.896 25.6833C214.33 25.6833 214.697 25.5204 215.023 25.181C215.348 24.8552 215.525 24.3122 215.525 23.5792V12.1222C215.525 11.552 215.389 11.1177 215.131 10.8326C214.86 10.5339 214.48 10.3982 213.991 10.3982C213.38 10.3982 212.973 10.6154 212.756 11.0634L212.403 11.7285C212.131 12.2036 211.724 12.448 211.195 12.448C210.882 12.448 210.258 12.2851 209.321 11.9457C207.855 11.4163 206.837 11.0634 206.281 10.9005C205.724 10.7376 204.991 10.5747 204.095 10.4253V13.7511C204.923 13.8597 205.67 14.1176 206.348 14.5113C207.027 14.905 207.706 15.4751 208.385 16.2081L208.357 16.2217Z" fill="#BE2033"/>
<path d="M215.186 38.4842C214.846 38.0091 214.235 37.7647 213.665 37.8733C213.394 37.9276 213.176 38.0362 213 38.2262C212.756 38.4706 212.552 38.8643 212.376 39.4208C212.158 40.086 211.914 40.7647 211.561 41.362C210.747 42.7602 209.769 43.819 208.615 44.552C207.027 45.5294 205.52 46.0724 204.095 46.181V49.5475C205.697 49.4796 207.136 49.1403 208.412 48.5566C209.688 47.9729 210.937 47.0633 212.145 45.8552C213.136 44.8643 213.95 43.7783 214.588 42.5973C215.226 41.4163 215.538 40.4118 215.538 39.5837C215.538 39.1629 215.43 38.7964 215.213 38.4842H215.186Z" fill="#BE2033"/>
<path d="M192.529 46.7511C195.163 48.6108 198.258 49.5339 201.91 49.5339V46.1674C201.258 46.1131 200.81 46.0045 200.484 45.8552C200.158 45.7058 199.846 45.4343 199.548 45.0678C199.276 44.742 199.045 44.3348 198.869 43.8733C198.692 43.3981 198.611 42.9638 198.339 42.5294V18.5565C198.611 17.0905 198.882 15.9502 199.412 15.1629C199.941 14.3755 200.756 13.9004 201.923 13.7239V10.3846L201.217 10.3574C199.317 10.3574 197.348 10.9004 195.299 11.9864C193.249 13.0724 191.484 14.5113 190.018 16.2895C188.566 18.0543 187.453 20.1448 186.692 22.5339C185.932 24.9366 185.552 27.5294 185.552 30.2986C185.552 34.0859 186.136 37.371 187.317 40.1402C188.498 42.9095 190.235 45.1085 192.557 46.7511H192.529Z" fill="#BE2033"/>
<path d="M219.624 48.8688H226.629C227.973 48.8688 228.638 48.4073 228.638 47.4842C228.638 46.8462 228.339 46.3846 227.728 46.0996L226.765 45.6516C225.679 45.1493 225.136 44.3213 225.136 43.1674C225.136 42.7195 225.204 42.2444 225.353 41.7285L230.24 23.905L228.828 18.1901L222.597 40.9276C222.271 42.1765 221.837 43.181 221.335 43.9412C221.009 44.4027 220.656 44.7692 220.303 45.0272C219.95 45.2987 219.394 45.5973 218.633 45.9231C217.819 46.276 217.425 46.7104 217.425 47.2534C217.425 47.7557 217.629 48.1358 218.023 48.4208C218.416 48.7059 218.959 48.8552 219.638 48.8552L219.624 48.8688Z" fill="#BE2033"/>
<path d="M252.448 47.4164C252.448 47.0634 252.353 46.7919 252.163 46.5747C251.973 46.3711 251.647 46.1675 251.158 45.9639C250.588 45.7467 250.208 45.448 250.045 45.0951C249.855 44.6471 249.692 44.1449 249.543 43.5611L241.819 10.9005H230.742L230.05 13.6019L235.113 35.9593H228.977L228.163 39.543H235.9L236.796 43.5747C236.851 43.8191 236.878 44.0906 236.878 44.4028C236.878 44.7421 236.81 45.0136 236.661 45.2308C236.511 45.448 236.253 45.6516 235.887 45.8417C235.371 46.1132 235.032 46.3575 234.882 46.534C234.733 46.724 234.665 46.9955 234.665 47.3621C234.665 47.81 234.828 48.163 235.167 48.4345C235.507 48.7059 235.941 48.8417 236.498 48.8417H250.29C251.742 48.8417 252.462 48.353 252.462 47.4028L252.448 47.4164Z" fill="#BE2033"/>
<path d="M286.86 10.914H280.1C279.394 10.914 278.891 11.0226 278.579 11.2534C278.267 11.4841 278.104 11.8506 278.104 12.3393C278.104 12.6651 278.172 12.9366 278.321 13.1538C278.471 13.371 278.729 13.561 279.109 13.7511C280.222 14.3348 281.009 15.0407 281.443 15.8552C281.878 16.6696 282.109 17.8506 282.109 19.3982V27.0407L284.973 31.9819V19.3982C284.973 18.1086 285.149 17.0905 285.489 16.3303C285.977 15.2986 286.697 14.5384 287.647 14.0362C288.299 13.7104 288.706 13.4389 288.882 13.2488C289.059 13.0588 289.14 12.7601 289.14 12.3801C289.14 12 288.991 11.6199 288.679 11.3348C288.394 11.0362 287.783 10.8868 286.873 10.8868L286.86 10.914Z" fill="#BE2033"/>
<path d="M264.787 46.2081L263.986 45.7466C263.063 45.2172 262.398 44.5384 261.977 43.7104C261.557 42.8823 261.339 41.8235 261.339 40.5339V25.7511L258.475 20.8914V40.5339C258.475 43.1131 257.606 44.8778 255.882 45.8552C255.312 46.181 254.932 46.4524 254.756 46.6425C254.579 46.8325 254.498 47.104 254.498 47.4298C254.498 48.38 255.312 48.8687 256.955 48.8687H263.199C264.095 48.8687 264.692 48.7466 264.977 48.5158C265.412 48.1629 265.575 47.6877 265.453 47.104C265.371 46.7239 265.113 46.4117 264.774 46.2217L264.787 46.2081Z" fill="#BE2033"/>
<path d="M255.434 13.8597L256.493 14.2534C256.9 14.3892 257.24 14.5928 257.498 14.8643C257.756 15.1493 258.095 15.638 258.502 16.3439L277.385 48.8688H284.973V36.6109L270.176 10.9276H258C256.615 10.9276 255.76 10.9955 255.448 11.1177C255.176 11.2263 254.946 11.4163 254.783 11.6878C254.62 11.9593 254.538 12.2444 254.538 12.5566C254.538 12.8552 254.62 13.1267 254.783 13.3575C254.946 13.6018 255.176 13.7647 255.448 13.8597H255.434Z" fill="#BE2033"/>
</g>
<defs>
<clipPath id="clip0_2402_3775">
<rect width="300" height="125.294" fill="white"/>
</clipPath>
</defs>
</svg>
