<?xml version="1.0" encoding="utf-8"?>
<!-- Generator: Adobe Illustrator 27.1.1, SVG Export Plug-In . SVG Version: 6.00 Build 0)  -->
<svg xmlns:xlink="http://www.w3.org/1999/xlink" version="1.1"
	 id="Layer_2_00000174574816738162345640000016071000200086311559_" xmlns="http://www.w3.org/2000/svg" x="0px" y="0px" viewBox="0 0 6876 743.9"
	 style="enable-background:new 0 0 6876 743.9;" xml:space="preserve">
<style type="text/css">
	.st0{fill:#FFFFFF;}
</style>
<g id="Layer_2-2">
	<g>
		<polygon class="st0" points="156.5,589.1 156.5,561.3 166.4,561.3 166.4,555.7 139.9,555.7 139.9,561.3 149.8,561.3 149.8,589.1
					"/>
		<polygon class="st0" points="202.9,589.1 202.9,555.7 192.8,555.7 186.8,578.5 180.8,555.7 170.7,555.7 170.7,589.1 176.9,589.1
			176.9,562.8 183.5,589.1 190,589.1 196.7,562.8 196.7,589.1 		"/>
		<path class="st0" d="M561.7,300.1c24.2,43.3,74.7,54.1,111.5,18.7c5.7-5.6,10.6-11.3,14.9-17.1c5.3,4.3,10.4,8.8,15.3,13.5
			c11.5,10.9,22.1,23,30.8,36.1l6.1,9c4.9-2.3,12.4-5.7,17.2-8.2c25.3-13.3,48.8-30.1,69.6-49.7c0.1-0.1,0.1-0.1,0.2-0.2
			c-0.8,22.3-5,44.5-12.3,65.6c-3.8,10.9-9.6,23.1-14.5,33.6c8.4,2.2,19.8,5.1,28,7.6c14.1,4.2,28,9.3,42.1,13.2l6.5,1.8l5.7-4.2
			c26-19.3,49.3-42,71-65.9c46-51.1,82.7-111.8,103.5-177.5c3,23.1,4.1,46.4,3.3,69.6c-2.5,83.7-36.1,164.2-94.8,224l-6.3,6.6
			c3.5,26.4,6.3,53.2,8.2,79.7c0,0.5,0,1.5,0.1,1.9c-0.1,3.5,0.2,6.5,0.4,9.8c0.9,10.9,0.9,25.2-3.9,34.1
			c-8.9,16.8-36.4,12.1-52,9.1c-18.7-4-44.6-13.3-50.5-32.7c-1.1-4.2-0.7-8.4,1.3-12.2c0.8-1.6,1.8-3,3.4-4
			c10.5-6.3,34,1.6,44.3,7.8c3.2,2.2,7,5,7.9,8.6c0.5,3.5-3,6.5-5.6,8.7l10.5,13.2c18.3-14.1,15.7-32.7-1.8-45.9
			c-7.8-6-17-9.5-26.3-12.6c-23.8-7.7-48.8-4.6-56.9,22.9c-7.7,28.7,16.1,53.4,39.6,65c17.5,8.8,35.7,13.9,55.1,16.1
			c32,3.4,59.3-9.8,69.1-41.8c4.2-13.6,4.5-27.4,4.2-41.2c-0.1-2.7,0.1-5.3,0.1-7.8c-0.4-16.4-2.7-32.5-4.6-48.6c0,0-1.2-9.3-2.2-17
			c88.4-95,116.7-225.6,89-351.4c-3.4-15.7-7.6-31.3-12.9-46.5c-0.5-2.1-29.8-75.7-31.2-79.9c-4.6,50.7-6.9,117.4-24.8,165.4
			c-18.9,57.1-50.8,109.8-89.7,155.7c-18.1,21.3-37.8,41.4-59.3,59.3c-12.2-2.6-24.6-4.7-36.8-7.3c0.7-1.9,1.5-3.7,2.2-5.6
			c10.9-29.6,17.3-61.1,16.9-92.8c-0.1-4.9-0.3-9.9-0.9-14.8l-0.1-1.1l-0.2-1.3l-3.8-27.9c-11.1,12.7-26.1,30.8-38.4,42
			c-18.4,17-38.9,32-60.9,44c-13.6-17-29.7-31.9-47-45.2l0.1-0.2c0,0-1.5-0.9-1.7-1.1c-0.2-0.1-0.3-0.2-0.4-0.3
			c-7-5.4-14.6-10.1-21.4-15.9c0,0-5.8,9.7-9.4,15.8c-4.3,6.3-9,12.5-14.6,17.3c-12.9,11-27.2,17.3-43.8,10.5
			c-24.5-10.8-34.3-41.1-33.7-66.7c0.7-35.3,13.9-69.3,29.4-100.9c18.2,25.6,35.3,54.3,36.5,85.9c1,18.8-9.8,34-29.2,36.8l5.8,24.4
			c20.8-5.8,37.7-20.2,43.8-41.3c2-6.8,3.1-13.8,2.8-20.8c0.5-7.4-1.6-24.4-4.3-34.2c-6.9-27.8-19.3-53.7-35.2-77.3
			c-6-9.2-17.4-22.8-24.4-31.7c-4.3,7.1-14.2,22.3-18.1,29.4C571,135,561.4,159.4,555,185C546.2,222.4,542.1,265,561.7,300.1
			L561.7,300.1z"/>
		<path class="st0" d="M791,702.1c24.2,15.1,50.5,27.4,77.7,36.2c1.8,0.6,10.4,3.3,12,3.7c14.5,4.1,31,1.1,44.3-4.4
			c17.7-7.3,32.8-18.2,46.7-30.8l1.9-1.8l1-0.9l1.1-1.1l-10.9-30.3c-6.4-0.6-12.8,0.3-19.2,0.4c-4.5,0-9.6-0.2-13.9-0.3
			c-24.7-1.1-49.7-7.6-70.3-21.6c-9.4-6.4-18.1-14.1-24.5-23.6l-14.2,7.7c0.6,1,0.9,1.7,1.5,2.6c18.1,28.1,48,47,79.4,57
			c6.1,2,12.3,3.6,18.5,5c-9.9,5.8-21.5,11.1-32.6,8.8c-0.4-0.1-1-0.3-1.5-0.5l-8.2-2.7c-24.5-8.5-47.7-19.9-69.5-34
			c-4.2-2.7-10.6-7.1-14.8-10c-4.7-3.1-11.6-7.2-16.5-10c-49-27.7-101.5-47.9-155.8-62.2c-20.5-6.8-39.8-25.5-46.6-48.6
			c-3.1-9.4-6.7-32.8-1.2-41.2c5.6-4.4,20.3,1.1,27,4l1.8,0.8l0.9,0.4c0.3,0.1,0.6,0.3,0.8,0.4l11.4-15.8c-0.5-0.5-1.6-1.4-2.1-1.8
			c-7.6-6.1-15.7-11.2-25.1-14.3c-20.4-6.9-39,1.5-46.9,21.9c-3.5,9.2-4.6,18.3-5,27.8c-0.7,19.9,3.6,40.3,13.8,57.6
			c12.8,21.5,33.9,37.3,57.2,46c1,0.3,1.9,0.7,3,1l9.4,2.4c25.6,6.6,50.9,14.8,75.5,24.3c27.3,10.6,53.6,22.7,78.3,37.8
			C780.1,695,786.5,699.3,791,702.1L791,702.1z"/>
		<polygon class="st0" points="756.8,517 784.6,513.3 768.8,490.1 740.9,493.9 		"/>
		<path class="st0" d="M152.2,58.7C199.8,41,279,46.6,327.5,61.8c76.9,24.4,148.3,80.4,201.7,140l19.1-14.4
			c-3.1-4.5-6.7-9.3-10-13.6c-23.9-30.5-51.1-58.4-81-83.1C381.8,28.3,304.5-0.1,206.1,0c-43.5,0.9-99.3,9-123.3,51
			c-21.6,40.7-5.3,87.6-2.3,129.6c0.2,3.6,0.4,7.5,0.8,11.1c1.7,16.1,6,32.9,6.6,47.8c1.7,30.4-9.9,58.6-26.1,85.3
			c-9.4,15.8-19.3,30.9-30,46C21.8,385.4,9.3,400.8,4,418.5c-3.8,12.9-4.4,24.8-3.9,37.6c1.2,19.7,8.4,38.8,16.2,55.9
			c8.6,18.4,18.6,35.3,29.9,51.9c3.6,5.2,15,21,18.9,26.5c7.2-7.1,19.8-20,27.4-26.8c18.9-16.7,43.6-36.7,68.1-42.4
			c4-0.8,7.1-0.9,10.3-0.7h0.8c43.2,0.7,79,47.1,107.7,76.2c4.6,4.7,9.3,9.5,14.8,14.4c3.3,3,7.3,6.1,11.3,8.2
			c18.9,10,41.4,7.3,60.8,2c26.9-7.9,50.6-20.2,73.6-35.5c6-4,12-8.5,17.9-13.5c0.6-0.5,1.9-1.6,2.4-2.2c0.2-0.2,0.4-0.4,0.5-0.5
			l0.5-0.5l3.8-4c38.5-41.7,43.3-81.2,41.1-135.2c-2-48.3-10.4-95.9-19.6-143.2l-19.8,3c4,43.6,8.5,87.4,9,131.1
			c-0.8,43.5-0.4,79.4-31,113.4c-2.5,2.9-5.9,6.3-8.6,9l-0.4,0.3c-0.1,0.1-0.2,0.2-0.3,0.3l-0.5,0.4c-13.8,11.2-30.2,20.4-46.5,28
			c-16,7.3-48.5,20.1-64.4,12.5c-1.1-0.7-1.3-0.9-2.4-1.8c-4.6-4.1-9-8.6-13.7-13.6c-37.7-41.7-79.5-89.2-134.8-90
			c-35.7-2.8-73.8,23.3-102,48.4c-6.3-10.7-12.2-21.7-17.1-32.8c-5.8-13.5-10.6-26.7-11.3-40.7c-0.1-7.2,0.5-15.9,2.7-22.3
			c2.9-8.1,7.7-14.2,13.1-21.6l9.6-12.8c9.9-13.2,19.6-26.9,28.7-40.8c27.8-41.4,48.1-85.4,42-136.8c-1.3-13.2-4.2-25.7-5.1-38.3
			c-0.7-14.3-3.3-29.7-5.3-42.6c-2.7-18.1-6.2-38.1-3.1-54.6C128,70.3,139.9,63.7,152.2,58.7L152.2,58.7z"/>
	</g>
	<g>
		<path class="st0" d="M1747.2,215.6V214c33.9-9.9,58.5-23.1,58.4-91c-0.2-77.7-47.3-103.9-144.2-103.7L1311.6,20l0.8,396.3l387-0.8
			c69.5-0.1,120.9-18.3,120.8-105.3C1820,250.5,1800.3,222.1,1747.2,215.6 M1433.3,115l215.1-0.4c22.4-0.1,35.6,8.1,35.6,31.1
			c0.1,22.4-13.1,30.7-35.5,30.7l-215.1,0.4L1433.3,115L1433.3,115z M1651.6,320.4l-217.9,0.4l-0.1-61.8l217.8-0.4
			c26.3,0,43.8,5.9,43.9,32.8C1695.4,314.3,1677.9,320.3,1651.6,320.4"/>
		<polygon class="st0" points="2014.4,18.6 1892.9,18.8 1893.7,415.2 2288.3,414.4 2288.1,312.6 2015,313.1 		"/>
		<path class="st0" d="M2514.7,17.6l-213.8,396.7l135.8-0.3l35.4-70.1l246.3-0.5l37.9,70l135.2-0.3L2672.9,17.3L2514.7,17.6
			L2514.7,17.6z M2517.4,258.5l76.3-149l79.1,148.7L2517.4,258.5L2517.4,258.5z"/>
		<path class="st0" d="M3249.8,315.1l-129.7,0.3c-57.5,0.1-69.6-21.8-69.7-79.2l-0.1-42.7c-0.1-49.2,11.9-79.4,75.9-79.5l132.5-0.3
			c36.1-0.1,56.9,8.1,57,36.6v10.9l121.5-0.2c0.9-112.2-21.6-149.4-194.6-149.1l-142.9,0.3c-109.5,0.2-174.6,27.7-174.3,143.8
			l0.2,118.3c0.2,116,65.4,143.3,174.9,143.1l196-0.4c122.1-0.2,146-52.8,145.9-119.6l-0.1-37.2l-121.5,0.3
			C3321,309.5,3304.6,315,3249.8,315.1"/>
		<polygon class="st0" points="4012.3,14.7 3847,15.1 3694,160.9 3637.1,161.1 3636.8,15.4 3515.3,15.7 3516,412 3637.6,411.8
			3637.3,259.6 3690.9,259.5 3866.4,411.3 4038.3,411 3798.1,208.9 		"/>
		<path class="st0" d="M4720,13.4l-366.8,0.7l0.8,396.3l121.5-0.2l-0.2-102.9l191.1-0.4c37.8,0,49.8,13.6,49.9,55.2l0.1,47.6
			l121.5-0.2l-0.1-67.3c-0.1-65.2-30.3-81-66.4-87.5v-1.1c55.8-13.2,67.8-44.5,67.7-97.6l0-25.2C4838.9,59.7,4813.6,13.2,4720,13.4
			 M4720.9,166.6c0,28.5-11.9,41.6-44.8,41.7l-200.9,0.4l-0.2-96.3l190-0.4c38.3-0.1,55.9,6.5,55.9,41.5L4720.9,166.6z"/>
		<polygon class="st0" points="5298.8,153.5 5042.6,154 5042.4,12.7 4920.9,13 4921.6,409.3 5043.1,409 5042.8,259.1 5299,258.6
			5299.3,408.6 5420.9,408.3 5420.1,12 5298.5,12.2 		"/>

			<rect x="5509.1" y="11.7" transform="matrix(1 -1.919857e-03 1.919857e-03 1 -0.3926 10.6938)" class="st0" width="121.5" height="396.3"/>
		<polygon class="st0" points="6137.1,298.5 6136,298.5 5907.2,11.1 5718.9,11.4 5719.6,407.7 5841.2,407.5 5840.6,119.6
			5841.7,119.6 6070.5,407.1 6258.9,406.7 6258.1,10.4 6136.6,10.6 		"/>
		<path class="st0" d="M6700.9,5.1L6506,5.5c-109.5,0.2-174.6,27.7-174.3,143.8l0.2,118.2c0.2,116,65.4,143.3,174.9,143.1l194.9-0.4
			c109.5-0.2,174.6-27.7,174.3-143.8l-0.2-118.2C6875.5,32.2,6810.4,4.9,6700.9,5.1 M6751.1,228.9c0.1,57.5-11.9,79.4-69.3,79.5
			l-155.5,0.3c-57.5,0.1-69.5-21.8-69.6-79.2l-0.1-42.7c-0.1-49.2,11.9-79.4,75.9-79.5l142.4-0.3c64-0.1,76.1,30,76.2,79.2
			L6751.1,228.9L6751.1,228.9z"/>
		<polygon class="st0" points="1370.7,662.2 1497.7,662.2 1497.7,736.6 1557.9,736.6 1557.9,540.1 1497.7,540.1 1497.7,610.1
			1370.7,610.1 1370.7,540.1 1310.5,540.1 1310.5,736.6 1370.7,736.6 		"/>
		<path class="st0" d="M1934.2,701.8h122.1l18.7,34.8h67.1l-108-196.5h-78.4l-106.4,196.5h67.3L1934.2,701.8L1934.2,701.8z
			 M1994.7,585.7l39.1,73.8h-77.1L1994.7,585.7L1994.7,585.7z"/>
		<path class="st0" d="M2493.7,685.6h94.7c18.7,0,24.7,6.8,24.7,27.4v23.6h60.2v-33.4c0-32.3-14.9-40.2-32.8-43.4v-0.5
			c27.7-6.5,33.6-22,33.6-48.3v-12.5c0-35.3-12.5-58.3-58.9-58.3h-181.8v196.5h60.2L2493.7,685.6L2493.7,685.6z M2493.7,589h94.1
			c19,0,27.7,3.2,27.7,20.6v6.5c0,14.1-6,20.6-22.3,20.6h-99.6L2493.7,589L2493.7,589z"/>
		<path class="st0" d="M3250.2,668.2v-59.7c0-48.6-21.1-68.4-81.4-68.4H2987v196.5h181.8C3229.1,736.6,3250.2,716.8,3250.2,668.2
			 M3047.3,686.1V589h106.9c25.8,0,35.8,7.3,35.8,35.3v26.6c0,28-10,35.3-35.8,35.3L3047.3,686.1L3047.3,686.1z"/>
		<path class="st0" d="M4026.2,701.8h122.1l18.7,34.8h67l-108-196.5h-78.4l-106.3,196.5h67.3L4026.2,701.8L4026.2,701.8z
			 M4086.7,585.7l39.1,73.8h-77.1L4086.7,585.7L4086.7,585.7z"/>
		<polygon class="st0" points="4721.1,686.1 4585.7,686.1 4585.7,540.1 4525.5,540.1 4525.5,736.6 4721.1,736.6 		"/>
		<polygon class="st0" points="5212.2,686.1 5076.9,686.1 5076.9,540.1 5016.6,540.1 5016.6,736.6 5212.2,736.6 		"/>
		<path class="st0" d="M5589.9,738.8h96.6c54.3,0,86.6-13.6,86.6-71.1v-58.6c0-57.5-32.3-71.1-86.6-71.1h-96.6
			c-54.2,0-86.5,13.5-86.5,71.1v58.6C5503.4,725.2,5535.7,738.8,5589.9,738.8 M5565.2,627.8c0-24.4,6-39.3,37.7-39.3h70.5
			c31.8,0,37.7,14.9,37.7,39.3v21.2c0,28.5-6,39.3-34.5,39.3h-77c-28.5,0-34.5-10.9-34.5-39.3V627.8z"/>
		<polygon class="st0" points="6169.8,736.6 6230,736.6 6230,668.2 6338.8,540.1 6266.1,540.1 6199.9,620.5 6133.7,540.1
			6061,540.1 6169.8,668.2 		"/>
		<path class="st0" d="M6704.3,738.8h73c80,0,98-8.7,98-61.6c0-57.2-21.7-63-115.3-62.7c-64.6,0.3-71.9-0.3-71.9-17.4
			c0-10.6,9.2-15.2,22.8-15.2h66.7c27.6,0,29.3,6,29.3,20.3h60.2V596c0-34.5-6.5-58.1-76-58.1H6707c-76,0-79.2,27.4-79.2,63
			c0,48.3,10.3,59.2,101,59.2c77.6,0,84.7,1.1,84.7,18.2c0,15.2-13,16.5-25.8,16.5h-73.8c-17.4,0-25.8-1.6-26.1-22.5h-60.2v13.6
			C6627.5,728.5,6649.5,738.8,6704.3,738.8"/>
	</g>
</g>
</svg>
