<svg width="189" height="32" viewBox="0 0 189 32" fill="none" xmlns="http://www.w3.org/2000/svg">
<g clip-path="url(#clip0_1061_1834)">
<mask id="mask0_1061_1834" style="mask-type:luminance" maskUnits="userSpaceOnUse" x="0" y="0" width="189" height="32">
<path d="M188.444 0H0.0119019V32H188.444V0Z" fill="white"/>
</mask>
<g mask="url(#mask0_1061_1834)">
<path d="M158.266 30.2597L157.715 29.1343C157.587 28.8671 157.454 28.7637 157.241 28.7637C157.029 28.7637 156.891 28.8671 156.764 29.1343L156.213 30.2597H158.266ZM158.376 28.9147L159.866 31.9553H159.099L158.591 30.9153H155.887L155.379 31.9553H154.618L156.102 28.9157C156.374 28.3545 156.725 28.1042 157.241 28.1042C157.888 28.1042 158.177 28.5144 158.376 28.9157V28.9147ZM137.711 30.0521C137.711 28.9743 137.115 28.7846 135.864 28.7846C134.614 28.7846 134.013 28.9743 134.013 30.0521C134.013 31.1298 134.61 31.3245 135.864 31.3245C137.119 31.3245 137.711 31.1338 137.711 30.0521ZM138.417 30.0521C138.417 31.7646 137.19 32.001 135.864 32.001C134.538 32.001 133.306 31.7646 133.306 30.0521C133.306 28.3396 134.535 28.1032 135.864 28.1032C137.193 28.1032 138.417 28.3396 138.417 30.0521ZM180.502 30.0521C180.502 29.1581 180.217 28.8402 179.409 28.8402H177.117V31.263H179.409C180.217 31.263 180.502 30.9461 180.502 30.0521ZM181.209 30.0521C181.209 31.3504 180.637 31.9543 179.409 31.9543H176.421V28.1489H179.409C180.637 28.1489 181.209 28.7538 181.209 30.0521ZM154.888 0H148.393V23.9709H182.363V17.6574H154.888V0ZM187.984 21.7687C187.984 21.5085 187.941 21.2691 187.858 21.0516C187.773 20.833 187.657 20.6463 187.507 20.4893C187.358 20.3324 187.183 20.2112 186.985 20.1248C186.785 20.0394 186.571 19.9957 186.341 19.9957C186.111 19.9957 185.89 20.0384 185.689 20.1248C185.488 20.2112 185.313 20.3324 185.164 20.4893C185.014 20.6463 184.898 20.834 184.813 21.0516C184.729 21.2701 184.687 21.5085 184.687 21.7687C184.687 22.0141 184.725 22.2436 184.802 22.4581C184.879 22.6727 184.988 22.8604 185.132 23.0213C185.276 23.1822 185.449 23.3094 185.652 23.4028C185.855 23.4961 186.085 23.5438 186.341 23.5438C186.571 23.5438 186.785 23.5011 186.985 23.4147C187.183 23.3283 187.358 23.2071 187.507 23.0501C187.657 22.8932 187.773 22.7064 187.858 22.4909C187.941 22.2743 187.984 22.034 187.984 21.7697V21.7687ZM188.444 21.7687C188.444 22.0906 188.387 22.3836 188.274 22.6468C188.161 22.9111 188.008 23.1366 187.814 23.3243C187.621 23.512 187.397 23.6571 187.143 23.7604C186.888 23.8637 186.621 23.9153 186.341 23.9153C186.031 23.9153 185.747 23.8607 185.488 23.7514C185.229 23.6422 185.008 23.4922 184.822 23.3005C184.636 23.1087 184.49 22.8823 184.385 22.62C184.28 22.3578 184.227 22.0737 184.227 21.7677C184.227 21.4459 184.284 21.1539 184.397 20.8897C184.51 20.6254 184.663 20.3999 184.856 20.2122C185.05 20.0245 185.275 19.8794 185.531 19.7761C185.788 19.6728 186.058 19.6212 186.341 19.6212C186.624 19.6212 186.888 19.6728 187.143 19.7761C187.397 19.8794 187.621 20.0255 187.814 20.2122C188.008 20.3999 188.161 20.6254 188.274 20.8897C188.387 21.1539 188.444 21.4469 188.444 21.7677V21.7687ZM186.562 21.6396C186.629 21.6337 186.688 21.6178 186.737 21.5909C186.787 21.5641 186.828 21.5264 186.859 21.4787C186.889 21.431 186.904 21.3635 186.904 21.2751C186.904 21.2025 186.888 21.1449 186.856 21.1032C186.823 21.0615 186.781 21.0287 186.731 21.0059C186.682 20.983 186.626 20.9681 186.565 20.9632C186.504 20.9572 186.444 20.9542 186.388 20.9542H185.916V21.6486H186.353C186.425 21.6486 186.495 21.6456 186.562 21.6396ZM186.675 21.9525L187.34 22.9975H186.898L186.283 21.9813H185.916V22.9975H185.525V20.6205H186.427C186.714 20.6205 186.931 20.6741 187.076 20.7814C187.222 20.8887 187.295 21.0625 187.295 21.3039C187.295 21.5184 187.235 21.6754 187.117 21.7747C186.998 21.874 186.851 21.9336 186.675 21.9525ZM115.969 29.3905C115.969 29.2147 115.903 28.8035 115.299 28.8035H112.818V29.9766H115.299C115.903 29.9766 115.969 29.5664 115.969 29.3895V29.3905ZM116.143 30.3163C116.427 30.4991 116.583 30.7901 116.583 31.1527V31.9543H115.871V31.1477C115.871 30.8209 115.641 30.6332 115.239 30.6332H112.818V31.9543H112.117V28.1489H115.269C116.137 28.1489 116.675 28.6088 116.675 29.3498C116.675 29.7799 116.482 30.1216 116.143 30.3163ZM110.995 23.9709H144.965V17.6584H117.495V14.9595H144.965V8.96675H117.495V6.26789H144.965V0H110.995V23.9709ZM34.9025 23.9709H41.3988V14.9585H69.6282V8.96576H41.3621V6.26689H69.6282V0H34.9035V23.9709H34.9025ZM78.6773 29.8773V31.9543H79.3737V30.5815H83.0202V29.9269H79.3737V29.8783C79.3737 29.0637 79.6548 28.8412 80.6829 28.8412H83.1592V28.1499H80.6829C79.2584 28.1499 78.6783 28.6505 78.6783 29.8783L78.6773 29.8773ZM40.0747 30.0511C40.0747 28.9733 39.4797 28.7836 38.2281 28.7836C36.9765 28.7836 36.3766 28.9733 36.3766 30.0511C36.3766 31.1289 36.9736 31.3235 38.2281 31.3235C39.4827 31.3235 40.0747 31.1328 40.0747 30.0511ZM40.781 30.0511C40.781 31.7636 39.5542 32 38.2281 32C36.902 32 35.6693 31.7636 35.6693 30.0511C35.6693 28.3386 36.8991 28.1022 38.2281 28.1022C39.5572 28.1022 40.781 28.3386 40.781 30.0511ZM57.5344 29.8773V31.9543H58.2307V30.5815H61.8772V29.9269H58.2307V29.8783C58.2307 29.0637 58.5118 28.8412 59.5389 28.8412H62.0153V28.1499H59.5389C58.1145 28.1499 57.5344 28.6505 57.5344 29.8783V29.8773ZM96.6208 30.356H98.8895V29.7054H96.6208V30.356ZM107.618 17.5799L107.634 23.97H78.0476L73.0045 17.5799V0.0188732H79.475V14.9823L81.5282 17.5809H101.147V0.0188732H107.618V17.5799Z" fill="white"/>
<path fill-rule="evenodd" clip-rule="evenodd" d="M3.61968 9.19415L9.34521 3.50239H21.6982L27.393 9.19415H3.61968ZM18.759 19.6896H12.4603V14.3306L24.1607 14.3525L18.759 19.6886V19.6896ZM10.861 28.8104L3.5422 21.4945L3.5869 10.7974H10.861V28.8104ZM7.55325 0.0187988L0 7.56907V31.8599H23.2478L30.9957 24.1149V0.0187988H7.55325Z" fill="#FE5000"/>
</g>
</g>
<defs>
<clipPath id="clip0_1061_1834">
<rect width="188.444" height="32" fill="white"/>
</clipPath>
</defs>
</svg>
