<svg width="100" height="38" viewBox="0 0 100 38" fill="none" xmlns="http://www.w3.org/2000/svg">
<path d="M63.1092 9.72145C63.1092 7.88385 62.4935 7.3921 60.236 7.3921H57.0292C54.746 7.3921 54.1559 7.90973 54.1559 9.72145V25.768H46.7419V9.72145C46.7419 7.88385 46.1262 7.3921 43.9712 7.3921H37.8142V25.768H30.4001V0.818176H42.7398C47.4345 0.818176 48.8712 1.23228 50.3334 2.96635C51.6418 1.41345 53.2067 0.818176 56.08 0.818176H61.2365C64.7254 0.818176 66.8034 1.46522 68.3683 3.06987C69.9332 4.64865 70.5489 6.66741 70.5489 10.1873V25.768H63.1349V9.72145H63.1092Z" fill="white"/>
<path d="M7.41406 0.844055H0V25.7939H7.41406V0.844055Z" fill="white"/>
<path d="M100 9.17793V3.25104V0.844055H83.4018C79.9641 0.844055 77.8862 1.49109 76.2956 3.09575C74.7307 4.64865 74.115 6.69329 74.115 10.2132V16.4248C74.115 19.9447 74.705 21.9893 76.2956 23.5422C77.8605 25.121 79.9641 25.7939 83.4018 25.7939H100V23.4128V17.4859H93.5096V19.22H91.4316H84.3254C82.1447 19.22 81.5547 18.7024 81.5547 16.8906V9.72144C81.5547 7.88385 82.1447 7.3921 84.3254 7.3921H91.4316H93.5096V9.17793H100Z" fill="white"/>
<path d="M0 31.5655H1.48794L2.53976 35.5513L3.64289 31.5655H5.13084L6.23397 35.5513H6.25962L7.31144 31.5655H8.77373L7.0549 37.0265H5.5413L4.38687 33.1443L3.23243 37.0265H1.71883L0 31.5655Z" fill="white"/>
<path d="M21.4468 31.5655H22.9091V33.6101H25.9619V31.5655H27.4499V37.0265H25.9619V34.6454H22.9091V37.0265H21.4468V31.5655Z" fill="white"/>
<path d="M40.6619 31.5655H45.7157V32.6008H42.1242V33.7395H45.5362V34.723H42.1242V35.9912H45.7414V37.0265H40.6619V31.5655Z" fill="white"/>
<path d="M58.7224 31.5655H63.8019V32.6008H60.2104V33.7395H63.6224V34.723H60.2104V35.9912H63.8276V37.0265H58.7224V31.5655Z" fill="white"/>
<path d="M76.8086 31.5655H78.2965V35.9395H81.6059V37.0265H76.8086V31.5655Z" fill="white"/>
<path d="M98.153 33.1443C98.0503 32.4196 97.3833 32.342 96.7933 32.342C96.1776 32.342 95.7928 32.6267 95.7928 32.989C95.7928 33.2737 96.0237 33.429 96.4085 33.5066L98.2556 33.8172C99.2561 33.9725 100 34.3607 100 35.3442C100 36.3536 99.3074 37.1818 97.1781 37.1818C95.8441 37.1818 94.1252 37.0006 94.1252 35.2925H95.7928C95.8184 36.043 96.5624 36.1724 97.2037 36.1724C97.8964 36.1724 98.3582 35.9654 98.3582 35.4995C98.3582 35.0854 98.0247 34.956 97.4346 34.8783L96.1006 34.6713C95.1514 34.516 94.2535 34.2313 94.2535 33.1184C94.2535 31.902 95.254 31.4102 96.9472 31.4102C98.076 31.4102 99.7179 31.5914 99.8205 33.1443H98.153Z" fill="white"/>
<path d="M17.2654 13.319L26.5778 0.844055H18.2146L8.9021 13.319L18.2146 25.768H26.5778L17.2654 13.319Z" fill="white"/>
</svg>
