<?xml version="1.0" encoding="UTF-8"?>
<svg id="Affirm_2_Color_-_HEX" data-name="Affirm 2 Color - HEX" xmlns="http://www.w3.org/2000/svg" viewBox="0 0 428.55 171">
  <defs>
    <style>
      .cls-1, .cls-2 {
        fill: #101820;
      }

      .cls-1, .cls-3 {
        fill-rule: evenodd;
      }

      .cls-3 {
        fill: #4a4af4;
      }
    </style>
  </defs>
  <path class="cls-1" d="M28.1,156.27c-5.3,0-7.95-2.61-7.95-6.91,0-7.97,8.91-10.69,25.18-12.42,0,10.66-7.21,19.32-17.24,19.32h0ZM35.12,96.32c-11.62,0-25,5.48-32.26,11.26l6.63,13.95c5.82-5.33,15.24-9.88,23.73-9.88s12.52,2.7,12.52,8.13c0,3.66-2.95,5.51-8.53,6.23-20.85,2.71-37.21,8.46-37.21,24.54,0,12.74,9.08,20.45,23.25,20.45,10.11,0,19.12-5.62,23.4-13.04v10.96h18.85v-45.94c0-18.97-13.19-26.67-30.38-26.67h0Z"/>
  <path class="cls-1" d="M224.4,98.39v70.53h20.17v-33.99c0-16.15,9.78-20.89,16.6-20.89,2.67,0,6.26.77,8.63,2.55l3.67-18.65c-3.11-1.33-6.37-1.63-9.04-1.63-10.37,0-16.89,4.59-21.19,13.93v-11.86h-18.84"/>
  <path class="cls-1" d="M367,96.32c-10.67,0-18.65,6.31-22.79,12.38-3.85-7.85-12.02-12.38-21.8-12.38-10.67,0-18.05,5.93-21.46,12.74v-10.67h-19.44v70.53h20.18v-36.3c0-13.04,6.83-19.29,13.2-19.29,5.77,0,11.07,3.73,11.07,13.36v42.23h20.16v-36.3c0-13.19,6.66-19.29,13.33-19.29,5.33,0,10.96,3.88,10.96,13.22v42.38h20.16v-48.75c0-15.86-10.67-23.86-23.56-23.86"/>
  <path class="cls-1" d="M175.28,98.39h-18.28v-7.17c0-9.33,5.33-12,9.92-12,5.08,0,9.03,2.25,9.03,2.25l6.22-14.22s-6.3-4.12-17.77-4.12c-12.89,0-27.56,7.26-27.56,30.08v5.19h-30.6v-7.17c0-9.33,5.33-12,9.92-12,2.61,0,6.12.6,9.03,2.25l6.22-14.22c-3.71-2.18-9.68-4.12-17.77-4.12-12.89,0-27.56,7.26-27.56,30.08v5.19h-11.71v15.56h11.71v54.98h20.16v-54.98h30.6v54.98h20.16v-54.98h18.28v-15.56"/>
  <rect class="cls-2" x="187.32" y="98.39" width="20.14" height="70.53"/>
  <path class="cls-3" d="M188.06,86.4h19.73c11.51-36.19,50.56-67.96,97.03-67.96,56.48,0,105.29,43,105.29,109.94,0,15.02-1.94,28.58-5.63,40.55h19.15l.19-.66c3.14-12.35,4.74-25.77,4.74-39.89C428.55,53.73,374.16,0,304.82,0c-54.46,0-102.99,37.8-116.76,86.4h0Z"/>
</svg>